# xmcd
#
# Track frame offsets:
#	150
#	9904
#	20152
#	32242
#	41695
#	51269
#	62283
#	74136
#	84993
#	95927
#	109792
#	123784
#	135125
#	147350
#	160172
#	172277
#	188289
#	200167
#	211285
#	222387
#
# Disc length: 3093 seconds
#
# Revision: 0
# Processed by: cddbd v1.5.2PL0 Copyright (c) Steve Scherf et al.
# Submitted via: audiograbber 1.82.01
#
DISCID=240c1314
DTITLE=Brenda Lee - Anthology
DYEAR=1991
DGENRE=Country
TTITLE0=Jambalaya (On the Bayou)
TTITLE1=Bigelow 6-200 
TTITLE2=One Step at a Time 
TTITLE3=Dynamite
TTITLE4=Little Jonah (Rock on Your Steel Guitar)
TTITLE5=Let's Jump the Broomstick 
TTITLE6=Rockin' Around the Christmas Tree 
TTITLE7=Bill Bailey, Won't You Please Come Home 
TTITLE8=Sweet Nothin's 
TTITLE9=Weep No More My Baby 
TTITLE10=I Want to Be Wanted 
TTITLE11=That's All You Gotta Do 
TTITLE12=I'm Sorry 
TTITLE13=Emotions
TTITLE14=If You Love Me (Really Love Me)
TTITLE15=You Can Depend on Me 
TTITLE16=Kansas City 
TTITLE17=Dum Dum 
TTITLE18=Fool #1 
TTITLE19=So Deep 
EXTD=
EXTT0=
EXTT1=
EXTT2=
EXTT3=
EXTT4=
EXTT5=
EXTT6=
EXTT7=
EXTT8=
EXTT9=
EXTT10=
EXTT11=
EXTT12=
EXTT13=
EXTT14=
EXTT15=
EXTT16=
EXTT17=
EXTT18=
EXTT19=
PLAYORDER=
